<?xml version="1.0" encoding="UTF-8"?>
<svg version="1.1" xmlns="http://www.w3.org/2000/svg" width="291" height="302">

<path d="M0 0 C4.5461508 3.43272912 8.80926105 7.14575397 13 11 C13.87269531 11.79019531 14.74539062 12.58039063 15.64453125 13.39453125 C35.95088205 32.67756988 50.80328417 61.45659634 52.17700195 89.63012695 C52.73351767 124.66844492 52.73351767 124.66844492 48 138 C47.54077148 139.29719971 47.54077148 139.29719971 47.07226562 140.62060547 C40.26963608 159.28248584 31.43791827 174.43165748 18 189 C17.26136719 189.82113281 16.52273437 190.64226562 15.76171875 191.48828125 C5.08064505 202.81303547 -7.91292162 210.67194448 -22 217 C-23.18980469 217.55558594 -24.37960938 218.11117187 -25.60546875 218.68359375 C-53.78324146 231.00560777 -88.49557409 230.65080604 -116.99145508 219.89575195 C-133.92601018 213.19281473 -147.72368329 203.48439606 -161 191 C-161.88558594 190.21109375 -161.88558594 190.21109375 -162.7890625 189.40625 C-177.8092537 175.4538449 -186.6811033 156.15148317 -193 137 C-193.41507813 135.81535156 -193.83015625 134.63070312 -194.2578125 133.41015625 C-197.25000956 123.27225783 -197.36742192 113.17977224 -197.375 102.6875 C-197.37699402 101.95420471 -197.37898804 101.22090942 -197.38104248 100.46539307 C-197.3707684 67.04940716 -184.01265641 36.96778142 -160.6875 13.1875 C-118.26035954 -28.42569052 -48.6694262 -35.01104099 0 0 Z M-160.72265625 22.8046875 C-182.26704446 47.45611109 -192.76606032 78.41373428 -191 111 C-188.62094436 136.62441182 -179.13562318 162.04852676 -161.10546875 180.7890625 C-159 183 -159 183 -156.63671875 185.94140625 C-153.9582233 189.18366073 -150.94371945 191.74576622 -147.625 194.3125 C-147.01849609 194.78324951 -146.41199219 195.25399902 -145.78710938 195.73901367 C-130.40282653 207.44093036 -113.86649174 214.88942359 -95 219 C-94.25782227 219.1757959 -93.51564453 219.3515918 -92.75097656 219.53271484 C-89.32628256 220.11443869 -85.95207557 220.19977847 -82.48828125 220.23828125 C-81.76698532 220.24816574 -81.04568939 220.25805023 -80.30253601 220.26823425 C-58.31243072 220.73456792 -58.31243072 220.73456792 -37 216 C-36.22317871 215.72091797 -35.44635742 215.44183594 -34.64599609 215.15429688 C-19.85395172 209.66302365 -7.05962376 202.22988774 5 192 C5.68578125 191.44828125 6.3715625 190.8965625 7.078125 190.328125 C12.86587998 185.54297324 17.43436485 179.93863413 22 174 C22.91265625 172.82824219 22.91265625 172.82824219 23.84375 171.6328125 C29.27247631 164.30403199 33.1481351 156.22949042 37 148 C37.62068359 146.70449219 37.62068359 146.70449219 38.25390625 145.3828125 C50.27070347 118.14473881 48.32769633 85.4077074 37.87548828 58.14160156 C25.70324771 28.36611515 1.97096878 6.20914101 -27 -7 C-27.82886719 -7.37898438 -28.65773437 -7.75796875 -29.51171875 -8.1484375 C-75.22850423 -27.7308287 -127.24480132 -11.6818259 -160.72265625 22.8046875 Z " fill="#141414" transform="translate(212,55)"/>
<path d="M0 0 C20.01092044 15.93514598 20.01092044 15.93514598 21.4375 26.125 C21 29 21 29 19.3125 30.9375 C16.30142427 32.32096723 15.12498217 32.05096127 12 31 C9.82421875 28.77734375 9.82421875 28.77734375 7.6875 25.9375 C-3.53059938 11.65151842 -18.57446769 0.16498539 -37.06640625 -2.75 C-57.54995477 -4.495602 -76.90455253 -1.74728311 -93.2890625 11.578125 C-99.9954866 17.36780609 -105.57633518 24.01751464 -111 31 C-112 32 -112 32 -114.375 32.25 C-117 32 -117 32 -118.8125 30.9375 C-120.84327804 27.6241253 -120.67197713 25.84859627 -120 22 C-117.71722116 18.31291005 -114.92370971 15.1912387 -112 12 C-110.87851563 10.73929688 -110.87851563 10.73929688 -109.734375 9.453125 C-80.5309213 -21.68433225 -34.21061148 -23.88287971 0 0 Z " fill="#111111" transform="translate(189,98)"/>
<path d="M0 0 C1.05832031 -0.03738281 2.11664063 -0.07476562 3.20703125 -0.11328125 C7.00402679 0.42914668 7.72362836 1.41171154 10.1875 4.3125 C11.57232074 6.68899024 12.84920502 9.03111972 14.078125 11.484375 C14.42760193 12.1667926 14.77707886 12.84921021 15.137146 13.55230713 C16.24453502 15.71875441 17.34113151 17.89045831 18.4375 20.0625 C19.18939652 21.53812121 19.94199336 23.01338579 20.6953125 24.48828125 C22.53417418 28.09227642 24.36338055 31.70102238 26.1875 35.3125 C26.22508423 33.77541382 26.22508423 33.77541382 26.26342773 32.20727539 C26.35734484 28.41840324 26.45760317 24.62972119 26.55981445 20.84106445 C26.60322297 19.19885697 26.64489358 17.55660261 26.68481445 15.91430664 C26.7423744 13.55861255 26.80610892 11.20315572 26.87109375 8.84765625 C26.89616249 7.73983543 26.89616249 7.73983543 26.92173767 6.6096344 C27.07362829 1.42637171 27.07362829 1.42637171 28.1875 0.3125 C29.70678038 0.24070036 31.22917482 0.22857993 32.75 0.25 C33.57628906 0.25902344 34.40257812 0.26804688 35.25390625 0.27734375 C35.89199219 0.28894531 36.53007813 0.30054688 37.1875 0.3125 C37.23808145 7.68144815 37.27318333 15.05035178 37.29736328 22.41943359 C37.30744011 24.92791415 37.32110179 27.43638292 37.33837891 29.94482422 C37.36255337 33.54397488 37.37396612 37.14297067 37.3828125 40.7421875 C37.39313507 41.86930145 37.40345764 42.99641541 37.41409302 44.15768433 C37.41431961 45.71907639 37.41431961 45.71907639 37.41455078 47.31201172 C37.418992 48.23134491 37.42343323 49.1506781 37.42800903 50.09786987 C37.1875 52.3125 37.1875 52.3125 35.1875 54.3125 C32.98046875 54.71875 32.98046875 54.71875 30.375 54.8125 C29.52292969 54.8640625 28.67085937 54.915625 27.79296875 54.96875 C23.50766543 53.88939324 21.29510184 50.14535751 19.09083557 46.4977417 C18.01426439 44.51923699 16.98910921 42.52176182 15.98046875 40.5078125 C15.48673767 39.54379517 15.48673767 39.54379517 14.98303223 38.56030273 C13.77199845 36.19028656 12.57424661 33.81350233 11.375 31.4375 C8.673125 26.11625 5.97125 20.795 3.1875 15.3125 C2.8575 28.1825 2.5275 41.0525 2.1875 54.3125 C-0.7825 54.3125 -3.7525 54.3125 -6.8125 54.3125 C-6.83776648 46.78280348 -6.85533141 39.2531178 -6.86743164 31.72338867 C-6.8724737 29.15958243 -6.87930714 26.59577909 -6.88793945 24.03198242 C-6.90001064 20.35594979 -6.90572942 16.67995502 -6.91015625 13.00390625 C-6.91531754 11.84975723 -6.92047882 10.69560822 -6.92579651 9.50648499 C-6.92587204 8.44546066 -6.92594757 7.38443634 -6.92602539 6.29125977 C-6.928246 5.35194107 -6.93046661 4.41262238 -6.93275452 3.44483948 C-6.68893752 -0.87849585 -3.7005366 0.08501837 0 0 Z " fill="#0F0F0F" transform="translate(81.8125,177.6875)"/>
<path d="M0 0 C0.75055664 0.00749268 1.50111328 0.01498535 2.27441406 0.02270508 C19.87306898 0.36289506 34.49622048 7.18892678 47.125 19.375 C54.30666537 26.91058728 54.30666537 26.91058728 55.125 31.9375 C54.6875 34.25 54.6875 34.25 53.5625 36.0625 C50.67846277 37.88905691 49.06161977 37.77895939 45.6875 37.25 C43.18477111 35.18689775 41.23674991 32.69067168 39.1875 30.1875 C32.78203799 22.82794132 26.81493967 18.71797522 17.6875 15.25 C16.28564453 14.68345703 16.28564453 14.68345703 14.85546875 14.10546875 C4.22086489 11.23373232 -8.57579348 12.17682929 -18.3125 17.25 C-19.17101562 17.68570313 -20.02953125 18.12140625 -20.9140625 18.5703125 C-28.66133159 22.85354587 -35.04184187 28.4204601 -39.3125 36.25 C-42.11120027 37.64935013 -44.21748792 37.50265405 -47.3125 37.25 C-49.1875 36.0625 -49.1875 36.0625 -50.3125 34.25 C-50.64874037 31.24391075 -50.56129282 29.67801439 -49.02734375 27.0390625 C-47.14805272 24.75087078 -45.26135914 22.47946411 -43.3125 20.25 C-42.77238281 19.62609375 -42.23226562 19.0021875 -41.67578125 18.359375 C-34.50036556 10.64536879 -25.24245053 5.54437038 -15.3125 2.25 C-13.69021484 1.71052734 -13.69021484 1.71052734 -12.03515625 1.16015625 C-7.90016901 0.14918875 -4.23183298 -0.05593363 0 0 Z " fill="#111111" transform="translate(137.3125,108.75)"/>
<path d="M0 0 C2 2 2 2 2.1953125 3.9453125 C2.13020833 5.96354167 2.06510417 7.98177083 2 10 C-2 10 -2 10 -5.3125 8.5 C-9.32778445 6.86666395 -11.71442987 6.4545638 -16 7 C-20.97899243 9.48949621 -22.92810652 11.90361833 -25 17 C-25.33685119 19.73410886 -25.52386167 22.15057716 -25.5 24.875 C-25.49790527 25.57955322 -25.49581055 26.28410645 -25.49365234 27.01000977 C-25.32053991 32.72338067 -24.07824148 36.93411683 -20 41 C-16.08247554 42.95876223 -11.28017689 42.36272686 -7 42 C-3.59758176 40.6351132 -3.59758176 40.6351132 -1 39 C-0.01 39 0.98 39 2 39 C2 41.97 2 44.94 2 48 C-6.25801459 52.19669594 -13.13895375 54.77128099 -22.51171875 52.3515625 C-29.59121859 49.5389938 -33.29188292 45.13154797 -36.875 38.5625 C-39.53450643 30.45733754 -39.32616954 18.83772977 -36.1015625 10.95703125 C-32.82021478 5.12740285 -28.42722526 0.31794136 -22.23046875 -2.37890625 C-14.75733598 -4.45986616 -6.93922695 -3.32472851 0 0 Z " fill="#131313" transform="translate(205,180)"/>
<path d="M0 0 C1.20970459 0.00523682 2.41940918 0.01047363 3.66577148 0.01586914 C4.97094727 0.0190918 6.27612305 0.02231445 7.62084961 0.02563477 C9.00952213 0.03399138 10.39819401 0.04245634 11.78686523 0.05102539 C13.17944179 0.05603873 14.57202005 0.06060193 15.96459961 0.06469727 C19.38456394 0.07653105 22.80444367 0.09301659 26.22436523 0.11352539 C26.32202148 6.26586914 26.32202148 6.26586914 26.22436523 8.11352539 C25.22436523 9.11352539 25.22436523 9.11352539 23.45849609 9.22705078 C22.70963135 9.22181396 21.9607666 9.21657715 21.18920898 9.21118164 C20.38032227 9.20795898 19.57143555 9.20473633 18.73803711 9.20141602 C17.88790039 9.19303711 17.03776367 9.1846582 16.16186523 9.17602539 C15.30786133 9.17151367 14.45385742 9.16700195 13.57397461 9.16235352 C11.4574086 9.15052912 9.34087838 9.13259308 7.22436523 9.11352539 C7.22436523 13.73352539 7.22436523 18.35352539 7.22436523 23.11352539 C9.04774414 23.09612305 9.04774414 23.09612305 10.90795898 23.07836914 C12.49259287 23.06899261 14.07722841 23.05989226 15.66186523 23.05102539 C16.46430664 23.04264648 17.26674805 23.03426758 18.09350586 23.02563477 C20.13731744 23.01701109 22.18120425 23.06124389 24.22436523 23.11352539 C25.22436523 24.11352539 25.22436523 24.11352539 25.22436523 32.11352539 C19.28436523 32.11352539 13.34436523 32.11352539 7.22436523 32.11352539 C7.2359668 33.61786133 7.24756836 35.12219727 7.25952148 36.67211914 C7.26889772 38.63175332 7.2779981 40.59138884 7.28686523 42.55102539 C7.29524414 43.54424805 7.30362305 44.5374707 7.31225586 45.56079102 C7.31547852 46.5050293 7.31870117 47.44926758 7.32202148 48.42211914 C7.3272583 49.29666748 7.33249512 50.17121582 7.33789062 51.07226562 C7.22436523 53.11352539 7.22436523 53.11352539 6.22436523 54.11352539 C4.53827558 54.1855805 2.84935864 54.19738607 1.16186523 54.17602539 C0.24276367 54.16700195 -0.67633789 54.15797852 -1.62329102 54.14868164 C-2.33356445 54.13708008 -3.04383789 54.12547852 -3.77563477 54.11352539 C-3.80090124 46.58382887 -3.81846618 39.05414319 -3.83056641 31.52441406 C-3.83560847 28.96060782 -3.84244191 26.39680448 -3.85107422 23.83300781 C-3.86314541 20.15697518 -3.86886419 16.48098041 -3.87329102 12.80493164 C-3.8784523 11.65078262 -3.88361359 10.49663361 -3.88893127 9.30751038 C-3.88900681 8.24648605 -3.88908234 7.18546173 -3.88916016 6.09228516 C-3.89138077 5.15296646 -3.89360138 4.21364777 -3.89588928 3.24586487 C-3.7119405 -0.0158941 -3.30615002 0.13522383 0 0 Z " fill="#111111" transform="translate(134.775634765625,177.886474609375)"/>
<path d="M0 0 C0.75925781 0.00563965 1.51851562 0.0112793 2.30078125 0.01708984 C12.84997632 0.24553511 20.78828065 3.87571192 28.61328125 11.01171875 C32.20378791 14.82502535 33.85439306 17.88406063 33.75 23.3125 C32.6875 25.25 32.6875 25.25 30.75 26.3125 C27.87109375 26.64453125 27.87109375 26.64453125 24.75 26.3125 C22.6953125 24.484375 22.6953125 24.484375 20.875 22.0625 C16.08842592 16.35992113 12.70415596 13.72484338 5.19140625 12.94140625 C-1.94549771 12.70798917 -8.58858486 12.52979674 -14.25 17.3125 C-16.34260411 19.63717111 -18.31585239 21.98380575 -20.1953125 24.484375 C-22.25 26.3125 -22.25 26.3125 -25.37109375 26.64453125 C-28.25 26.3125 -28.25 26.3125 -30.1875 25.25 C-31.25 23.3125 -31.25 23.3125 -31.375 20.125 C-28.96335281 11.95219564 -22.83425114 7.63065001 -15.6796875 3.5390625 C-10.32148703 0.83411886 -6.01715862 -0.0462655 0 0 Z " fill="#121212" transform="translate(138.25,136.6875)"/>
<path d="M0 0 C0.99 0.33 1.98 0.66 3 1 C0.71643754 3.34138543 -1.57813374 5.67166982 -3.875 8 C-4.85146484 9.00160156 -4.85146484 9.00160156 -5.84765625 10.0234375 C-6.47285156 10.65507812 -7.09804687 11.28671875 -7.7421875 11.9375 C-8.3182373 12.52402344 -8.89428711 13.11054688 -9.48779297 13.71484375 C-11 15 -11 15 -13 15 C-11.65451384 11.90271751 -10.26804032 10.14576977 -7.625 8.0625 C-4.65871694 5.6287855 -2.28379912 3.1059668 0 0 Z " fill="#1D1D1D" transform="translate(228,235)"/>
</svg>
